<svg xmlns="http://www.w3.org/2000/svg" width="40" height="40" viewBox="0 0 40 40">
    <path id="account" d="M11.1,35.25a28.8,28.8,0,0,1,6.25-3.375A18.606,18.606,0,0,1,24,30.7a18.809,18.809,0,0,1,6.675,1.175A28.568,28.568,0,0,1,36.95,35.25a17.553,17.553,0,0,0,3.125-5.45A18.071,18.071,0,0,0,41,24,16.657,16.657,0,0,0,24,7,16.657,16.657,0,0,0,7,24a17.637,17.637,0,0,0,.95,5.8A17.994,17.994,0,0,0,11.1,35.25ZM24,25.5a6.746,6.746,0,0,1-6.85-6.85A6.746,6.746,0,0,1,24,11.8a6.746,6.746,0,0,1,6.85,6.85A6.746,6.746,0,0,1,24,25.5ZM24,44a19.352,19.352,0,0,1-7.75-1.575A20.15,20.15,0,0,1,5.575,31.75,19.352,19.352,0,0,1,4,24a19.3,19.3,0,0,1,1.575-7.775A20.218,20.218,0,0,1,16.25,5.575,19.352,19.352,0,0,1,24,4a19.3,19.3,0,0,1,7.775,1.575,20.286,20.286,0,0,1,10.65,10.65A19.3,19.3,0,0,1,44,24a19.352,19.352,0,0,1-1.575,7.75,20.218,20.218,0,0,1-10.65,10.675A19.3,19.3,0,0,1,24,44Zm0-3a18.337,18.337,0,0,0,5.375-.8,15.973,15.973,0,0,0,5.175-2.8,21.762,21.762,0,0,0-5.2-2.75,15.539,15.539,0,0,0-10.7,0,21.762,21.762,0,0,0-5.2,2.75,15.973,15.973,0,0,0,5.175,2.8A18.337,18.337,0,0,0,24,41Zm0-18.5a3.684,3.684,0,0,0,3.85-3.85,3.851,3.851,0,1,0-7.7,0A3.684,3.684,0,0,0,24,22.5ZM24,18.65ZM24,37.35Z" transform="translate(-4 -4)" fill="#747474"/>
  </svg>
  