<svg xmlns="http://www.w3.org/2000/svg" width="64" height="64" viewBox="0 0 64 64">
    <g id="Group_12151" data-name="Group 12151" transform="translate(4844 1092)">
      <circle id="Ellipse_2" data-name="Ellipse 2" cx="32" cy="32" r="32" transform="translate(-4844 -1092)" fill="#5bc4eb"/>
      <path id="file_copy_FILL0_wght400_GRAD0_opsz48" d="M31.093,31.415H10.967a2.381,2.381,0,0,1-2.322-2.322V4.322a2.228,2.228,0,0,1,.7-1.626A2.228,2.228,0,0,1,10.967,2H24.436l8.979,8.979V29.093a2.381,2.381,0,0,1-2.322,2.322ZM23.274,11.986V4.322H10.967v24.77H31.093V11.986ZM6.322,36.059a2.228,2.228,0,0,1-1.626-.7A2.228,2.228,0,0,1,4,33.737V9.779H6.322V33.737H25.6v2.322ZM10.967,4.322v0Z" transform="translate(-4831 -1079)" fill="#fff"/>
    </g>
  </svg>
  