<svg xmlns="http://www.w3.org/2000/svg" xmlns:xlink="http://www.w3.org/1999/xlink" width="64.968" height="64.968" viewBox="0 0 64.968 64.968">
    <defs>
      <clipPath id="clip-path">
        <path id="Rectangle_571" data-name="Rectangle 571" d="M0,0H64.968V64.968H0Z" fill="none" stroke="#d84e0c" stroke-width="2"/>
      </clipPath>
    </defs>
    <g id="Group_851" data-name="Group 851" clip-path="url(#clip-path)">
      <path id="Path_199922" data-name="Path 199922" d="M59.33,31.026A48.742,48.742,0,0,0,51.239,9.952a2.415,2.415,0,0,0-.983-.812,46.647,46.647,0,0,0-9.169-3.018c-2.166-.485-2.166-.487-3.116,1.562-.541,1.183-.541,1.161-1.816,1a44.437,44.437,0,0,0-10.365-.057c-.512.051-1.021.133-1.511.2-.468-.923-.869-1.8-1.353-2.623a.939.939,0,0,0-.777-.36A44.627,44.627,0,0,0,11.371,9.159a2.436,2.436,0,0,0-.972.812A48.4,48.4,0,0,0,2.183,41.908a1.267,1.267,0,0,0,.466.812,46.5,46.5,0,0,0,13.659,6.87.918.918,0,0,0,.812-.271c.9-1.372,1.735-2.78,2.582-4.18a2.079,2.079,0,0,0,.146-.439c-.826-.365-1.624-.69-2.388-1.064s-1.548-.812-2.339-1.221c.869-1.045.934-1.058,1.984-.617a33.954,33.954,0,0,0,27.522-.043c.926-.4,1.21-.309,1.876.734l-4.837,2.328c1,1.584,1.976,3.146,2.978,4.68.089.135.474.181.674.116a47.237,47.237,0,0,0,13.727-6.933,1.186,1.186,0,0,0,.439-.755,49.9,49.9,0,0,0-.168-10.912M24.824,34.161a4.77,4.77,0,0,1-7.179-.057,6.31,6.31,0,0,1-.051-8.281,4.645,4.645,0,0,1,4.791-1.551,5.2,5.2,0,0,1,3.833,3.933,13.582,13.582,0,0,1,.271,1.762,6.253,6.253,0,0,1-1.668,4.2m19.861-.836a4.924,4.924,0,0,1-4.9,2.382,5.333,5.333,0,0,1-4.3-4.136,12.509,12.509,0,0,1-.252-1.611A6.293,6.293,0,0,1,36.7,25.926a4.854,4.854,0,0,1,7.507-.03,6.407,6.407,0,0,1,.479,7.431" transform="translate(1.574 4.701)" fill="none" stroke="#d84e0c" stroke-width="2"/>
    </g>
  </svg>
  