<svg id="github" xmlns="http://www.w3.org/2000/svg" width="22.877" height="22.877" viewBox="0 0 22.877 22.877">
  <g id="Group_1050" data-name="Group 1050">
    <path id="Path_1067" data-name="Path 1067" d="M11.437,5.329A11.586,11.586,0,0,0,0,17.057,11.709,11.709,0,0,0,7.824,28.185c.572.108.781-.254.781-.565,0-.279-.01-1.016-.016-1.995-3.181.708-3.853-1.573-3.853-1.573a3.081,3.081,0,0,0-1.27-1.716c-1.039-.727.077-.713.077-.713a2.409,2.409,0,0,1,1.752,1.209,2.4,2.4,0,0,0,3.33.974,2.524,2.524,0,0,1,.726-1.568c-2.539-.3-5.21-1.3-5.21-5.8A4.6,4.6,0,0,1,5.319,13.3a4.31,4.31,0,0,1,.112-3.1s.961-.315,3.146,1.2a10.58,10.58,0,0,1,5.728,0c2.183-1.517,3.143-1.2,3.143-1.2a4.316,4.316,0,0,1,.114,3.1,4.591,4.591,0,0,1,1.175,3.148c0,4.5-2.674,5.5-5.222,5.787a2.838,2.838,0,0,1,.776,2.171c0,1.568-.014,2.833-.014,3.217,0,.314.206.679.786.564a11.71,11.71,0,0,0,7.814-11.127A11.587,11.587,0,0,0,11.437,5.329Z" transform="translate(0 -5.329)" fill="#142a37"/>
  </g>
</svg>
