<svg data-name="Group 891" xmlns="http://www.w3.org/2000/svg" width="24" height="24" viewBox="0 0 24 24">
    <defs>
        <clipPath id="xz33kfzhia">
            <path data-name="Rectangle 579" style="fill:none" d="M0 0h24v24H0z"/>
        </clipPath>
    </defs>
    <g data-name="Group 869" style="clip-path:url(#xz33kfzhia)">
        <path data-name="Path 199926" d="M12.533 1a11.618 11.618 0 0 1 2.269.273 11.311 11.311 0 0 1 4.938 2.5 11.26 11.26 0 0 1 3.969 7.485 11.385 11.385 0 0 1-3 9.244A11.292 11.292 0 0 1 16 23.6c-.542.191-.9-.05-.9-.621 0-1 .011-2.006.012-3.009a3.413 3.413 0 0 0-.366-1.683 6.64 6.64 0 0 0-.379-.549c.263-.041.524-.077.783-.123a5.483 5.483 0 0 0 3.041-1.42 4.562 4.562 0 0 0 1.243-2.439 5.952 5.952 0 0 0-.111-3.365 6.869 6.869 0 0 0-.734-1.291.521.521 0 0 1-.089-.5 4.163 4.163 0 0 0-.177-2.7.294.294 0 0 0-.252-.114 4.489 4.489 0 0 0-1.075.225c-.572.243-1.115.557-1.663.856a.552.552 0 0 1-.44.077 10.831 10.831 0 0 0-5.367 0 .46.46 0 0 1-.4-.07 6.84 6.84 0 0 0-2.088-1 5.109 5.109 0 0 0-.736-.1c-.117-.011-.183.051-.223.171a4.358 4.358 0 0 0-.108 2.805.29.29 0 0 1-.046.236A4.894 4.894 0 0 0 4.872 12.9a6.444 6.444 0 0 0 .517 2.049 4.352 4.352 0 0 0 2.437 2.264 8.217 8.217 0 0 0 2.012.493c.074.01.147.027.189.035-.165.3-.334.6-.488.9a.872.872 0 0 0-.1.345c-.012.279-.183.374-.417.446a2.343 2.343 0 0 1-2.315-.286 4.361 4.361 0 0 1-.741-.871 2.5 2.5 0 0 0-1.275-1.031 2.267 2.267 0 0 0-.685-.079.371.371 0 0 0-.283.168c-.028.059.072.2.141.277a1.217 1.217 0 0 0 .28.227 3.064 3.064 0 0 1 1.143 1.4A3.7 3.7 0 0 0 6 20.434a2.987 2.987 0 0 0 2.3.8c.33-.012.658-.066 1.006-.1a1.544 1.544 0 0 1 .019.156c.007.551.015 1.1.018 1.651 0 .611-.357.86-.932.654A11.64 11.64 0 0 1 .883 10.223 11.476 11.476 0 0 1 5.153 3.4a11.64 11.64 0 0 1 7.38-2.4" transform="translate(-.211 -.333)" style="fill:#fff"/>
    </g>
</svg>
