<svg xmlns="http://www.w3.org/2000/svg" width="58.252" height="58.252" viewBox="0 0 58.252 58.252">
    <path id="seed" d="M32.831,23.058v5.178l-4.66,4.66a8.4,8.4,0,0,0,0,11.909,8.438,8.438,0,0,0,11.909,0,8.4,8.4,0,0,0,0-11.909l-4.66-4.66V23.058A16.857,16.857,0,0,0,50.954,6.294,1.3,1.3,0,0,0,49.66,5,16.821,16.821,0,0,0,34.126,15.356,16.821,16.821,0,0,0,18.592,5,1.3,1.3,0,0,0,17.3,6.294,16.811,16.811,0,0,0,32.831,23.058Zm5.437,19.87a5.812,5.812,0,0,1-8.22-8.22l4.142-4.142,4.142,4.142A5.881,5.881,0,0,1,38.268,42.928ZM48.3,7.654A14.222,14.222,0,0,1,35.485,20.469,14.222,14.222,0,0,1,48.3,7.654ZM32.767,20.469A14.222,14.222,0,0,1,19.951,7.654,14.222,14.222,0,0,1,32.767,20.469Zm26.6,16.893H50.113a3.943,3.943,0,0,0-3.819,3.3A11.12,11.12,0,0,1,45,44.482h0a12.373,12.373,0,0,1-10.874,6.472,12.2,12.2,0,0,1-10.809-6.472,11.6,11.6,0,0,1-1.294-3.819,3.883,3.883,0,0,0-3.819-3.3H8.883A3.9,3.9,0,0,0,5,41.246V58.074a5.193,5.193,0,0,0,5.178,5.178h47.9a5.193,5.193,0,0,0,5.178-5.178V41.246A3.9,3.9,0,0,0,59.368,37.362Zm-10.55,3.754h0a1.377,1.377,0,0,1,1.294-1.165h9.256a1.3,1.3,0,0,1,1.294,1.294v2.589H48.106A14.046,14.046,0,0,0,48.818,41.116Zm-41.229.129a1.3,1.3,0,0,1,1.294-1.294h9.256a1.317,1.317,0,0,1,1.294,1.165,12.926,12.926,0,0,0,.712,2.718H7.589ZM60.663,58.074a2.6,2.6,0,0,1-2.589,2.589h-47.9a2.6,2.6,0,0,1-2.589-2.589V46.424H21.44a14.862,14.862,0,0,0,25.372,0H60.663Z" transform="translate(-5 -5)" fill="#d84e0c"/>
  </svg>
  