<svg id="angel-investor" xmlns="http://www.w3.org/2000/svg" width="73.169" height="61.808" viewBox="0 0 73.169 61.808">
  <path id="Path_32011" data-name="Path 32011" d="M35.01,35.158a2.523,2.523,0,0,1,2.523,2.523h2.523a5.046,5.046,0,0,0-5.046-5.046h-.366V29.57H32.121v3.065h-.366a5.046,5.046,0,0,0,0,10.091h.366v5.046h-.366a2.523,2.523,0,0,1-2.523-2.523H26.71a5.046,5.046,0,0,0,5.046,5.046h.366V53.36h2.523V50.295h.366a5.046,5.046,0,0,0,0-10.091h-.366V35.158Zm0,7.568a2.523,2.523,0,0,1,0,5.046h-.366V42.726ZM32.121,40.2h-.366a2.523,2.523,0,1,1,0-5.046h.366Z" transform="translate(3.207 0.161)" fill="#d84e0c"/>
  <path id="Path_32012" data-name="Path 32012" d="M73.425,34.4a16.158,16.158,0,0,0,2.737-8.262,1.261,1.261,0,0,0-1.728-1.173l-1.879.757c2.636-5.046,3.557-12.917,3.595-13.32a1.261,1.261,0,0,0-2.258-.9A94.691,94.691,0,0,1,66.437,20.2c-3.355,3.418-9.2,3.418-9.2,3.418a1.261,1.261,0,0,0-.845.328l-6.042,5.462A29.819,29.819,0,0,0,45.4,26.669a25.1,25.1,0,0,1,3.141-7.631,1.261,1.261,0,0,0-1.388-1.829l-3.355.833a3.62,3.62,0,0,1-2.258-.353,5.046,5.046,0,0,0-3.217-.088c-1.11.278-1.779.732-2.8.467l-3.507-.858a1.261,1.261,0,0,0-1.261,1.968c1.678,2.283,3.317,4.919,3.179,7.43a30.387,30.387,0,0,0-5.046,2.8l-6.042-5.462a1.261,1.261,0,0,0-.921-.328s-5.84,0-9.2-3.418a94.69,94.69,0,0,1-7.455-8.691A1.261,1.261,0,0,0,3,12.4c0,.4.959,8.338,3.595,13.32l-1.879-.757A1.261,1.261,0,0,0,3,26.139,16.158,16.158,0,0,0,5.739,34.4a11.617,11.617,0,0,0,2.523,2.586l-2.737.189A1.261,1.261,0,0,0,4.49,38.993a15.793,15.793,0,0,0,7.341,6.786l-2.9,2.737a1.261,1.261,0,0,0,.378,2.056,16.209,16.209,0,0,0,8.653.933,12.9,12.9,0,0,0,4.655-1.968L21.229,59.995A5.739,5.739,0,0,0,26.892,66.5H52.272a5.739,5.739,0,0,0,5.689-6.509L56.573,49.538a12.9,12.9,0,0,0,4.655,1.968,16.4,16.4,0,0,0,8.628-.933,1.261,1.261,0,0,0,.732-.933c.189-1.11-.833-1.35-3.229-3.86a15.78,15.78,0,0,0,7.266-6.786,1.261,1.261,0,0,0-.984-1.816l-2.712-.189A11.618,11.618,0,0,0,73.425,34.4ZM37.6,20.45l1.425-.441a3.494,3.494,0,0,1,2.384.328,5.563,5.563,0,0,0,3.595,0,20.51,20.51,0,0,0-2.094,5.8H36.454A12.1,12.1,0,0,0,34.6,20.45a5.184,5.184,0,0,0,3,0ZM22.944,46.22a13.434,13.434,0,0,1-5.411,2.8,14.3,14.3,0,0,1-5.31-.177l2.422-2.321a24.357,24.357,0,0,0,3.078.315l.1-2.523a13.257,13.257,0,0,1-5.954-1.261,14.355,14.355,0,0,1-4-3.507l4.024-.29a34.966,34.966,0,0,0,4.579,2.018l.807-2.4c-1.993-.656-7.568-3-9.448-5.8A14.342,14.342,0,0,1,5.79,28.17l4.2,1.678a25.064,25.064,0,0,0,5.046,3.784l1.135-2.245a27.75,27.75,0,0,1-5.979-4.818c-1.854-1.842-3.128-6.08-3.9-9.65,1.35,1.539,3.015,3.418,4.642,5.071,3.507,3.494,8.83,4.049,10.482,4.137l5.55,5.058a11.844,11.844,0,0,0-2.75,6.13l-1.261,9.044Zm29.327,17.76H26.892A3.229,3.229,0,0,1,23.7,60.335l3.027-22.7a9.41,9.41,0,0,1,5.109-7.165l3.595-1.8h8.3l3.595,1.791a9.41,9.41,0,0,1,5.046,7.165l3.027,22.7a3.229,3.229,0,0,1-3.128,3.658Zm9.612-25.228.807,2.4a34.965,34.965,0,0,0,4.642-1.9l4.024.29a14.355,14.355,0,0,1-4.024,3.507A13.257,13.257,0,0,1,61.379,44.3l.1,2.523a24.358,24.358,0,0,0,3.078-.315l2.384,2.334a14.3,14.3,0,0,1-5.31.164,13.434,13.434,0,0,1-5.411-2.8l-.076.1-1.261-9.044a11.844,11.844,0,0,0-2.687-6.08l5.563-5.046c1.652-.088,6.975-.643,10.482-4.137,1.652-1.652,3.292-3.532,4.629-5.134-.769,3.57-2.043,7.808-3.9,9.65a27.75,27.75,0,0,1-5.979,4.818l1.135,2.245A25.064,25.064,0,0,0,69.174,29.8l4.213-1.678a14.354,14.354,0,0,1-2.056,4.907c-1.867,2.788-7.455,5.121-9.448,5.79Z" transform="translate(-2.993 -4.696)" fill="#d84e0c"/>
  <path id="Path_32013" data-name="Path 32013" d="M47.228,10.415C47.228,6.933,39.294,6,34.614,6S22,6.933,22,10.415s7.934,4.415,12.614,4.415S47.228,13.9,47.228,10.415ZM34.614,8.523c5.992,0,9.334,1.261,10.015,1.892-.681.631-4.024,1.892-10.015,1.892S25.28,11.046,24.6,10.415C25.28,9.784,28.622,8.523,34.614,8.523Z" transform="translate(1.975 -6)" fill="#d84e0c"/>
</svg>
