<svg xmlns="http://www.w3.org/2000/svg" xmlns:xlink="http://www.w3.org/1999/xlink" width="28" height="28" viewBox="0 0 28 28">
  <defs>
    <linearGradient id="linear-gradient" x1="0.5" x2="0.5" y2="1" gradientUnits="objectBoundingBox">
      <stop offset="0" stop-color="#cd2a12"/>
      <stop offset="1" stop-color="#ed560d"/>
    </linearGradient>
  </defs>
  <g id="Group_12326" data-name="Group 12326" transform="translate(0.094 0.245)">
    <rect id="Rectangle_17463" data-name="Rectangle 17463" width="28" height="28" transform="translate(-0.094 -0.245)" fill="#d84e0c" opacity="0"/>
    <g id="sun" transform="translate(4.947 4.647)">
      <g id="Group_12220" data-name="Group 12220" transform="translate(14.875 4.456)">
        <g id="Group_12219" data-name="Group 12219">
          <path id="Path_32054" data-name="Path 32054" d="M325.236,96.6a.335.335,0,0,0-.458-.121l-1.634.945a.335.335,0,0,0,.336.579l1.634-.945A.335.335,0,0,0,325.236,96.6Z" transform="translate(-322.978 -96.438)" fill="url(#linear-gradient)"/>
        </g>
      </g>
      <g id="Group_12222" data-name="Group 12222" transform="translate(14.875 12.373)">
        <g id="Group_12221" data-name="Group 12221">
          <path id="Path_32055" data-name="Path 32055" d="M325.115,268.748l-1.634-.945a.335.335,0,0,0-.336.579l1.634.945a.335.335,0,0,0,.336-.579Z" transform="translate(-322.978 -267.758)" fill="url(#linear-gradient)"/>
        </g>
      </g>
      <g id="Group_12224" data-name="Group 12224" transform="translate(8.836 15.832)">
        <g id="Group_12223" data-name="Group 12223">
          <path id="Path_32056" data-name="Path 32056" d="M192.641,342.6a.336.336,0,0,0-.36.36v1.887a.336.336,0,1,0,.671,0v-1.887A.336.336,0,0,0,192.641,342.6Z" transform="translate(-192.28 -342.6)" fill="url(#linear-gradient)"/>
        </g>
      </g>
      <g id="Group_12226" data-name="Group 12226" transform="translate(1.164 4.456)">
        <g id="Group_12225" data-name="Group 12225">
          <path id="Path_32057" data-name="Path 32057" d="M28.395,97.428l-1.634-.945a.335.335,0,0,0-.336.579l1.634.945a.335.335,0,1,0,.336-.579Z" transform="translate(-26.258 -96.438)" fill="url(#linear-gradient)"/>
        </g>
      </g>
      <g id="Group_12228" data-name="Group 12228" transform="translate(8.836 0)">
        <g id="Group_12227" data-name="Group 12227" transform="translate(0)">
          <path id="Path_32058" data-name="Path 32058" d="M192.641,0a.336.336,0,0,0-.36.311.331.331,0,0,0,0,.05V2.248a.335.335,0,1,0,.671,0V.361A.337.337,0,0,0,192.641,0Z" transform="translate(-192.28 0)" fill="url(#linear-gradient)"/>
        </g>
      </g>
      <g id="Group_12230" data-name="Group 12230" transform="translate(4.407 1.213)">
        <g id="Group_12229" data-name="Group 12229" transform="translate(0)">
          <path id="Path_32059" data-name="Path 32059" d="M98,28.058l-.943-1.634a.335.335,0,0,0-.579.336l.943,1.634A.335.335,0,0,0,98,28.058Z" transform="translate(-96.438 -26.258)" fill="url(#linear-gradient)"/>
        </g>
      </g>
      <g id="Group_12232" data-name="Group 12232" transform="translate(15.782 8.884)">
        <g id="Group_12231" data-name="Group 12231">
          <path id="Path_32060" data-name="Path 32060" d="M345.159,192.55a.336.336,0,0,0-.311-.311h-1.887a.336.336,0,1,0-.05.671.332.332,0,0,0,.05,0h1.887A.336.336,0,0,0,345.159,192.55Z" transform="translate(-342.6 -192.239)" fill="url(#linear-gradient)"/>
        </g>
      </g>
      <g id="Group_12234" data-name="Group 12234" transform="translate(0 8.885)">
        <g id="Group_12233" data-name="Group 12233">
          <path id="Path_32061" data-name="Path 32061" d="M3.327,192.281a.331.331,0,0,0-.05,0H1.39a.336.336,0,0,0,0,.671H3.277a.336.336,0,1,0,.05-.671Z" transform="translate(-1.079 -192.28)" fill="url(#linear-gradient)"/>
        </g>
      </g>
      <g id="Group_12236" data-name="Group 12236" transform="translate(4.235 4.284)">
        <g id="Group_12235" data-name="Group 12235" transform="translate(0)">
          <path id="Path_32062" data-name="Path 32062" d="M97.652,92.7a4.937,4.937,0,1,0,4.936,4.938A4.937,4.937,0,0,0,97.652,92.7Zm3.015,7.959a4.268,4.268,0,0,1-6.033-6.039v.006a4.266,4.266,0,0,1,6.033,6.033Z" transform="translate(-92.714 -92.7)" fill="url(#linear-gradient)"/>
        </g>
      </g>
      <g id="Group_12238" data-name="Group 12238" transform="translate(12.322 14.925)">
        <g id="Group_12237" data-name="Group 12237">
          <path id="Path_32063" data-name="Path 32063" d="M269.286,324.78v0l-.945-1.634a.335.335,0,0,0-.579.336l.945,1.634a.335.335,0,0,0,.579-.335Z" transform="translate(-267.717 -322.978)" fill="url(#linear-gradient)"/>
        </g>
      </g>
      <g id="Group_12240" data-name="Group 12240" transform="translate(12.332 1.213)">
        <g id="Group_12239" data-name="Group 12239">
          <path id="Path_32064" data-name="Path 32064" d="M269.391,26.3a.335.335,0,0,0-.457.121l-.945,1.634a.335.335,0,0,0,.119.458h0a.335.335,0,0,0,.458-.121h0l.945-1.634A.335.335,0,0,0,269.391,26.3Z" transform="translate(-267.943 -26.258)" fill="url(#linear-gradient)"/>
        </g>
      </g>
      <g id="Group_12242" data-name="Group 12242" transform="translate(4.407 14.925)">
        <g id="Group_12241" data-name="Group 12241" transform="translate(0)">
          <path id="Path_32065" data-name="Path 32065" d="M97.885,323.023a.335.335,0,0,0-.457.121l-.945,1.634a.335.335,0,0,0,.579.336l.945-1.634A.335.335,0,0,0,97.885,323.023Z" transform="translate(-96.438 -322.978)" fill="url(#linear-gradient)"/>
        </g>
      </g>
      <g id="Group_12244" data-name="Group 12244" transform="translate(1.164 12.371)">
        <g id="Group_12243" data-name="Group 12243">
          <path id="Path_32066" data-name="Path 32066" d="M28.516,267.884a.335.335,0,0,0-.457-.121l-1.634.945a.335.335,0,0,0,.336.579l1.634-.945A.335.335,0,0,0,28.516,267.884Z" transform="translate(-26.258 -267.718)" fill="url(#linear-gradient)"/>
        </g>
      </g>
    </g>
  </g>
</svg>
