<svg xmlns="http://www.w3.org/2000/svg" width="20.742" height="16.42" viewBox="0 0 20.742 16.42">
  <path id="medium_1_" data-name="medium (1)" d="M19.087,4.43l1.655-1.583V2.5H15.008L10.922,12.67,6.273,2.5H.262v.347L2.2,5.174a.811.811,0,0,1,.262.677V15a1.043,1.043,0,0,1-.279.907L0,18.544v.342H6.175v-.347L4,15.9A1.075,1.075,0,0,1,3.7,15V7.086l5.42,11.8h.63l4.661-11.8v9.4c0,.248,0,.3-.162.462l-1.677,1.622v.347H20.7v-.347l-1.616-1.582a.481.481,0,0,1-.185-.461V4.891a.479.479,0,0,1,.184-.462Z" transform="translate(0 -2.5)" fill="#142a37"/>
</svg>
