<svg xmlns="http://www.w3.org/2000/svg" width="74.568" height="50.504" viewBox="0 0 74.568 50.504">
  <g id="_22.Membercard" data-name="22.Membercard" transform="translate(-5 -86)">
    <path id="Path_32118" data-name="Path 32118" d="M73.254,136.5H11.315A6.322,6.322,0,0,1,5,130.19V104.271a.891.891,0,1,1,1.783,0V130.19a4.537,4.537,0,0,0,4.532,4.532H73.254a4.537,4.537,0,0,0,4.532-4.532V92.315a4.537,4.537,0,0,0-4.532-4.532H11.315a4.537,4.537,0,0,0-4.532,4.532v4.232a.891.891,0,1,1-1.783,0V92.315A6.322,6.322,0,0,1,11.315,86H73.254a6.322,6.322,0,0,1,6.315,6.315V130.19A6.322,6.322,0,0,1,73.254,136.5Z" transform="translate(0)" fill="#d84e0c"/>
    <path id="Path_32119" data-name="Path 32119" d="M5.891,148.873A.891.891,0,0,1,5,147.981V146.5a.891.891,0,0,1,1.783,0v1.485a.891.891,0,0,1-.891.891Zm31.421,26.292H18.176a6.664,6.664,0,0,1-6.657-6.657V147.657A6.664,6.664,0,0,1,18.176,141H37.312a6.664,6.664,0,0,1,6.657,6.657v20.851A6.664,6.664,0,0,1,37.312,175.165ZM18.176,142.783a4.88,4.88,0,0,0-4.874,4.874v20.851a4.88,4.88,0,0,0,4.874,4.874H37.312a4.88,4.88,0,0,0,4.874-4.874V147.657a4.88,4.88,0,0,0-4.874-4.874Z" transform="translate(0 -46.83)" fill="#d84e0c"/>
    <path id="Path_32120" data-name="Path 32120" d="M97.661,186.883a5.793,5.793,0,1,1,5.793-5.793,5.793,5.793,0,0,1-5.793,5.793Zm0-9.8a4.011,4.011,0,1,0,4.011,4.011A4.011,4.011,0,0,0,97.661,177.08Zm5.533,21.687H92.128a5.02,5.02,0,0,1-5.014-5.014v-.964a5.02,5.02,0,0,1,5.014-5.014h11.065a5.02,5.02,0,0,1,5.014,5.014v.964A5.02,5.02,0,0,1,103.193,198.767Zm-11.065-9.21a3.235,3.235,0,0,0-3.232,3.232v.964a3.235,3.235,0,0,0,3.232,3.232h11.065a3.235,3.235,0,0,0,3.231-3.232v-.964a3.235,3.235,0,0,0-3.231-3.232Zm49.947-12.775H119.793a.891.891,0,0,1,0-1.783h22.281a.891.891,0,0,1,0,1.783Zm-5.348,7.427H119.793a.891.891,0,0,1,0-1.783h16.934a.891.891,0,1,1,0,1.783Zm5.348,7.427H119.793a.891.891,0,0,1,0-1.783h22.281a.891.891,0,0,1,0,1.783Zm-9.061,7.427h-13.22a.891.891,0,1,1,0-1.783h13.22a.891.891,0,1,1,0,1.783Z" transform="translate(-69.917 -75.78)" fill="#d84e0c"/>
  </g>
</svg>
