<svg xmlns="http://www.w3.org/2000/svg" width="65.624" height="66.037" viewBox="0 0 65.624 66.037">
    <path id="Path_32017" data-name="Path 32017" d="M62.078,1H5.946A4.8,4.8,0,0,0,1.2,5.746V50.321a4.8,4.8,0,0,0,4.746,4.746H27.512l-4.643,9.906H20.6a1.032,1.032,0,0,0,0,2.064H47.426a1.032,1.032,0,0,0,0-2.064h-2.27l-4.643-9.906H62.078a4.8,4.8,0,0,0,4.746-4.746V5.746A4.8,4.8,0,0,0,62.078,1ZM5.946,3.064H62.078A2.732,2.732,0,0,1,64.76,5.746V45.162H3.264V5.746A2.732,2.732,0,0,1,5.946,3.064ZM42.886,64.973H25.138l4.643-9.906h8.358ZM62.078,53H5.946a2.732,2.732,0,0,1-2.683-2.683v-3.2h61.5v3.2A2.664,2.664,0,0,1,62.078,53Z" transform="translate(-1.2 -1)" fill="#d84e0c"/>
    <path id="Path_32018" data-name="Path 32018" d="M35.475,49H30.832a1.032,1.032,0,1,0,0,2.064h4.643a.975.975,0,0,0,1.032-1.032A1.034,1.034,0,0,0,35.475,49ZM48.889,23.618a5.159,5.159,0,1,0-5.159-5.159A5.174,5.174,0,0,0,48.889,23.618Zm0-8.358a3.1,3.1,0,1,1-3.1,3.1A3.1,3.1,0,0,1,48.889,15.26Z" transform="translate(-0.29 -0.608)" fill="#d84e0c"/>
    <path id="Path_32019" data-name="Path 32019" d="M39.2,21.539l2.373.413-1.445,1.96a1.093,1.093,0,0,0,.1,1.341L43.02,28.04a1.082,1.082,0,0,0,1.341.1l1.96-1.445.413,2.373a1,1,0,0,0,1.032.825h3.921a1.111,1.111,0,0,0,1.032-.825l.413-2.373,1.96,1.445a1.093,1.093,0,0,0,1.341-.1l2.786-2.786a1.082,1.082,0,0,0,.1-1.341l-1.445-1.96,2.373-.413a1,1,0,0,0,.825-1.032V16.586a1.111,1.111,0,0,0-.825-1.032l-2.476-.31,1.445-1.96a1.093,1.093,0,0,0-.1-1.341L56.331,9.157a1.082,1.082,0,0,0-1.341-.1L53.029,10.5l-.413-2.373A1,1,0,0,0,51.584,7.3H47.663a1.111,1.111,0,0,0-1.032.825L46.219,10.5,44.362,9.054a1.093,1.093,0,0,0-1.341.1l-2.786,2.786a1.082,1.082,0,0,0-.1,1.341l1.445,1.96-2.373.413a1,1,0,0,0-.825,1.032v3.921C38.274,21.023,38.687,21.436,39.2,21.539Zm1.135-4.024,2.167-.31a1,1,0,0,0,.825-.722,7.109,7.109,0,0,1,.31-.825.949.949,0,0,0-.1-1.032L42.3,12.872l1.548-1.548L45.6,12.562a1.221,1.221,0,0,0,1.032.1c.31-.1.516-.206.825-.31a1,1,0,0,0,.722-.825l.31-2.167h2.167l.31,2.167a1,1,0,0,0,.722.825,7.11,7.11,0,0,1,.825.31.949.949,0,0,0,1.032-.1L55.3,11.324l1.548,1.548-1.238,1.754a.949.949,0,0,0-.1,1.032,1.647,1.647,0,0,1,.31.825,1,1,0,0,0,.825.722l2.167.31v2.167l-2.167.31a1,1,0,0,0-.825.722c-.1.31-.206.516-.31.825a.949.949,0,0,0,.1,1.032l1.238,1.754L55.3,25.873l-1.754-1.238a1.221,1.221,0,0,0-1.032-.1,4.247,4.247,0,0,1-.825.31,1,1,0,0,0-.722.825l-.31,2.167H48.489l-.31-2.167a1,1,0,0,0-.722-.825c-.31-.1-.516-.206-.825-.31a.949.949,0,0,0-1.032.1l-1.754,1.238L42.3,24.325l1.238-1.754a1.221,1.221,0,0,0,.1-1.032c-.1-.31-.206-.516-.31-.825v-.1a1.18,1.18,0,0,0-.825-.722l-2.167-.31ZM7.732,40.525h4.85a.975.975,0,0,0,1.032-1.032V8.332A.975.975,0,0,0,12.581,7.3H7.732A.975.975,0,0,0,6.7,8.332V39.6A1.018,1.018,0,0,0,7.732,40.525ZM8.764,9.364H11.55v29.2H8.764Zm9.6,31.161h4.85a.975.975,0,0,0,1.032-1.032V24.944a.975.975,0,0,0-1.032-1.032H18.36a.975.975,0,0,0-1.032,1.032V39.493A1.034,1.034,0,0,0,18.36,40.525Zm1.032-14.549h2.786V38.461H19.391Zm9.7,14.549h4.85a.975.975,0,0,0,1.032-1.032V18.444a.975.975,0,0,0-1.032-1.032h-4.85a.975.975,0,0,0-1.032,1.032V39.493A.975.975,0,0,0,29.091,40.525Zm1.032-21.049h2.786V38.461H30.122V19.476ZM54.886,33.612H44.362a1.032,1.032,0,1,0,0,2.064H54.886a1.032,1.032,0,1,0,0-2.064Zm0,4.85H44.362a1.032,1.032,0,1,0,0,2.064H54.886a1.032,1.032,0,1,0,0-2.064Z" transform="translate(-1.026 -0.8)" fill="#d84e0c"/>
  </svg>
  