<svg id="partners" xmlns="http://www.w3.org/2000/svg" width="62" height="62" viewBox="0 0 62 62">
  <path id="Path_32014" data-name="Path 32014" d="M27,63H25V57.586l2.438-2.438A1.909,1.909,0,0,0,28,53.791V48H14.485l-4.367-6.113A2.12,2.12,0,0,0,8.4,41H8.118a2.118,2.118,0,0,0-1.8,3.228L14,56.717V63H12V57.283L4.611,45.275A4.117,4.117,0,0,1,8.118,39H8.4a4.129,4.129,0,0,1,3.351,1.724L15.515,46H30v7.791a3.9,3.9,0,0,1-1.148,2.772L27,58.414ZM55.882,25H55.6a4.129,4.129,0,0,1-3.351-1.724L48.485,18H34V10.209a3.9,3.9,0,0,1,1.148-2.772L37,5.586V1h2V6.414L36.562,8.852A1.909,1.909,0,0,0,36,10.209V16H49.515l4.367,6.113A2.12,2.12,0,0,0,55.6,23h.278a2.118,2.118,0,0,0,1.8-3.228L50,7.283V1h2V6.717l7.389,12.008A4.117,4.117,0,0,1,55.882,25Z" transform="translate(-1 -1)" fill="#d84e0c"/>
  <rect id="Rectangle_2452" data-name="Rectangle 2452" width="5" height="2" transform="translate(30.755 15)" fill="#d84e0c"/>
  <path id="Path_32015" data-name="Path 32015" d="M33,48H27V46h4V37.741a1.975,1.975,0,0,1,1.055-1.756,2.044,2.044,0,0,1,2.115.136,5,5,0,0,0,6.714-.972,5.051,5.051,0,0,0,1-4.243,4.969,4.969,0,0,0-3.767-3.786,5.022,5.022,0,0,0-3.994.791,1.957,1.957,0,0,1-2.037.134A2.006,2.006,0,0,1,31,26.26V18H22.74a7,7,0,1,1-11.508.035L3,18V46H7v2H1V16H11.259a1.975,1.975,0,0,1,1.756,1.055,2.044,2.044,0,0,1-.136,2.115,5,5,0,0,0,.972,6.714,5.057,5.057,0,0,0,4.244,1,5,5,0,0,0,2.995-7.761,1.957,1.957,0,0,1-.134-2.037A2,2,0,0,1,22.74,16H33V26.26A6.993,6.993,0,0,1,43.842,30.5,7.007,7.007,0,0,1,37,39a6.958,6.958,0,0,1-3.965-1.232Z" transform="translate(-1 -1)" fill="#d84e0c"/>
  <path id="Path_32016" data-name="Path 32016" d="M63,48H53.741a1.975,1.975,0,0,1-1.756-1.055,2.044,2.044,0,0,1,.136-2.115,5,5,0,0,0-.972-6.714,5.051,5.051,0,0,0-4.244-1,5,5,0,0,0-2.995,7.761,1.957,1.957,0,0,1,.134,2.037A2,2,0,0,1,42.26,48H32V46H42.26A6.993,6.993,0,0,1,46.5,35.158,7.008,7.008,0,0,1,55,42a6.958,6.958,0,0,1-1.232,3.965L61,46V18H57V16h6Z" transform="translate(-1 -1)" fill="#d84e0c"/>
</svg>
