<svg xmlns="http://www.w3.org/2000/svg" width="61.921" height="62.696" viewBox="0 0 61.921 62.696">
  <g id="deposit-protection" transform="translate(0 0)">
    <path id="Path_32002" data-name="Path 32002" d="M60.07,4.538A3.524,3.524,0,0,0,56.554,1.09H45.347A3.524,3.524,0,0,0,41.83,4.538,3.464,3.464,0,0,0,38.5,8V8.29H7.069a5.609,5.609,0,0,0-5.6,5.6V53.453a5.609,5.609,0,0,0,5.6,5.6H9.357v2.593A2.146,2.146,0,0,0,11.5,63.786h8.074a2.146,2.146,0,0,0,2.141-2.141V59.052H37.891v2.593a2.146,2.146,0,0,0,2.141,2.141h8.074a2.146,2.146,0,0,0,2.141-2.141V59.052h1.768a5.609,5.609,0,0,0,5.6-5.6V31.019A17.064,17.064,0,0,0,63.39,19.762V8A3.448,3.448,0,0,0,60.07,4.538ZM6.8,27.306V22.031a.9.9,0,1,1,1.807,0v5.275a.9.9,0,0,1-.8.884H7.6A.893.893,0,0,1,6.8,27.306Zm1.817,12.72V45.3a.9.9,0,0,1-.9.9.916.916,0,0,1-.913-.9V40.026a.909.909,0,0,1,1.817,0Zm.039,7.9a2.8,2.8,0,0,0,1.856-2.632V40.016A2.81,2.81,0,0,0,8.66,37.384V29.929A2.8,2.8,0,0,0,10.516,27.3V22.022A2.81,2.81,0,0,0,8.66,19.389V15.45H38.5v4.332A17.075,17.075,0,0,0,50.444,34.476V51.842H8.66ZM19.818,61.635a.243.243,0,0,1-.246.246H11.5a.243.243,0,0,1-.246-.246V59.042h8.565Zm28.544,0a.243.243,0,0,1-.246.246H40.043a.243.243,0,0,1-.246-.246V59.042h8.565Zm7.367-8.192a3.7,3.7,0,0,1-3.693,3.693H7.079a3.7,3.7,0,0,1-3.693-3.693V13.889A3.7,3.7,0,0,1,7.079,10.2H38.51v3.379H7.707a.954.954,0,0,0-.953.953v4.882A2.8,2.8,0,0,0,4.9,22.041v5.275a2.81,2.81,0,0,0,1.856,2.632V37.4A2.8,2.8,0,0,0,4.9,40.036V45.31a2.81,2.81,0,0,0,1.856,2.632v4.882a.954.954,0,0,0,.953.953H51.4a.954.954,0,0,0,.953-.953V34.172a19.409,19.409,0,0,0,3.379-1.729ZM50.955,32.659c-10.1-3.536-10.539-12.543-10.549-12.9V8a1.559,1.559,0,0,1,1.562-1.562h.815a.954.954,0,0,0,.953-.953V4.606a1.622,1.622,0,0,1,1.621-1.621H56.564a1.622,1.622,0,0,1,1.621,1.621v.874a.954.954,0,0,0,.953.953h.805A1.559,1.559,0,0,1,61.5,8V19.743A15.114,15.114,0,0,1,50.955,32.659Z" transform="translate(-1.47 -1.09)" fill="#d84e0c"/>
    <path id="Path_32003" data-name="Path 32003" d="M36.847,26.895c-.01-.01-.01-.02-.02-.029s-.02-.01-.029-.02a9.794,9.794,0,0,0-13.83,0c-.01.01-.02.01-.02.02s-.01.02-.02.029a9.794,9.794,0,0,0,0,13.83c.01.01.01.02.02.029s.02.01.029.02a9.794,9.794,0,0,0,13.83,0c.01-.01.02-.01.029-.02s.01-.02.02-.029a9.781,9.781,0,0,0,2.858-6.915A9.879,9.879,0,0,0,36.847,26.895ZM21.73,34.615h4.076a4.009,4.009,0,0,0,.629,1.5L23.557,39A8.041,8.041,0,0,1,21.73,34.615Zm16.315-1.621H33.969a4.009,4.009,0,0,0-.629-1.5l2.878-2.878A8.19,8.19,0,0,1,38.045,32.995Zm-8.162,3.359a2.544,2.544,0,1,1,2.544-2.544A2.545,2.545,0,0,1,29.883,36.354Zm2.318-6a4.148,4.148,0,0,0-1.5-.629V25.647a8.178,8.178,0,0,1,4.391,1.817Zm-3.124-.629a4.009,4.009,0,0,0-1.5.629L24.7,27.474a8.1,8.1,0,0,1,4.391-1.817v4.066Zm-5.53-1.12,2.878,2.878a4.148,4.148,0,0,0-.629,1.5H21.72A8.254,8.254,0,0,1,23.547,28.6Zm4.027,8.654a4.148,4.148,0,0,0,1.5.629v4.076a8.178,8.178,0,0,1-4.391-1.817Zm3.114.629a4.009,4.009,0,0,0,1.5-.629l2.878,2.878a8.1,8.1,0,0,1-4.391,1.817V37.886ZM36.218,39,33.34,36.118a4.148,4.148,0,0,0,.629-1.5h4.076A8.19,8.19,0,0,1,36.218,39ZM51.286,8.91a6.777,6.777,0,1,0,6.777,6.777A6.785,6.785,0,0,0,51.286,8.91Zm0,11.649a4.872,4.872,0,1,1,4.872-4.872A4.877,4.877,0,0,1,51.286,20.559Z" transform="translate(-1.8 -1.229)" fill="#d84e0c"/>
    <path id="Path_32004" data-name="Path 32004" d="M53.329,14.068l-2.416,1.306-.275-.481a.952.952,0,1,0-1.66.933l.727,1.3a.944.944,0,0,0,.825.481.969.969,0,0,0,.452-.118l3.241-1.748a.943.943,0,0,0,.383-1.287A.929.929,0,0,0,53.329,14.068Z" transform="translate(-2.312 -1.318)" fill="#d84e0c"/>
  </g>
</svg>
