<svg id="Component_2_1" data-name="Component 2 – 1" xmlns="http://www.w3.org/2000/svg" width="64" height="64" viewBox="0 0 64 64">
    <circle id="Ellipse_4" data-name="Ellipse 4" cx="32" cy="32" r="32" fill="#55acee"/>
    <g id="twitter-seeklogo.com" transform="translate(11 14.178)">
      <path id="Path_32137" data-name="Path 32137" d="M41.163,4.782a16.885,16.885,0,0,1-4.85,1.33A8.47,8.47,0,0,0,40.025,1.44a16.912,16.912,0,0,1-5.363,2.049,8.453,8.453,0,0,0-14.391,7.7A23.975,23.975,0,0,1,2.866,2.368,8.454,8.454,0,0,0,5.479,13.643a8.411,8.411,0,0,1-3.825-1.056c0,.035,0,.071,0,.106a8.45,8.45,0,0,0,6.774,8.281,8.465,8.465,0,0,1-3.814.145A8.453,8.453,0,0,0,12.5,26.983,16.945,16.945,0,0,1,2.015,30.6,17.179,17.179,0,0,1,0,30.48a23.9,23.9,0,0,0,12.945,3.794c15.533,0,24.028-12.868,24.028-24.028q0-.549-.024-1.092a17.164,17.164,0,0,0,4.214-4.372" fill="#fff"/>
    </g>
  </svg>
  