<svg id="Group_12141" data-name="Group 12141" xmlns="http://www.w3.org/2000/svg" width="19.361" height="15.734" viewBox="0 0 19.361 15.734">
  <path id="Path_1063" data-name="Path 1063" d="M44.464,35.891a7.925,7.925,0,0,1-2.282.625,3.983,3.983,0,0,0,1.747-2.2,7.952,7.952,0,0,1-2.522.964,3.976,3.976,0,0,0-6.769,3.624,11.276,11.276,0,0,1-8.188-4.151,3.977,3.977,0,0,0,1.229,5.3,3.944,3.944,0,0,1-1.8-.5c0,.017,0,.034,0,.05a3.975,3.975,0,0,0,3.187,3.895,3.988,3.988,0,0,1-1.794.069,3.976,3.976,0,0,0,3.711,2.759A8.019,8.019,0,0,1,25.1,47.978,11.3,11.3,0,0,0,42.493,38.46q0-.258-.012-.514a8.055,8.055,0,0,0,1.982-2.056Z" transform="translate(-25.103 -34.028)" fill="#142a37"/>
</svg>
