<svg xmlns="http://www.w3.org/2000/svg" viewBox="0 0 40.79 41.84"><g id="katman_2" data-name="katman 2"><g id="Group_12411" data-name="Group 12411"><g id="Group_12290" data-name="Group 12290"><path id="Path_1" data-name="Path 1" d="M16.65,39.22l.6-2.11L17.1,37l-2,1.59,4.19-8.44v-.17L14.72,21,10.39,18.6l-4.62-.38-4.4-.35,9.05-1,4.2-2.7,5,3.79,3.32,2L24,22.59l2.14,2.47.13,4.85L16,41.37Z" style="fill:#d84e0c"/><g id="Group_1" data-name="Group 1"><path id="Path_2" data-name="Path 2" d="M21.36,23.26l1.6-3.4-2.76.46Z" style="fill:#d84e0c"/><path id="Path_3" data-name="Path 3" d="M37.23,11.74l-2.15.54L33.41,10l-.23-3.63L24.11,14.1l-.6.5h0l-1.24,1.06L20.65,17h0l-1,.86,3.31,2,1.11,2.65-.76,3.56L26.19,25l.22-.14,3.32-2.92.09-.07.38-.36L33,19l.56-.51,2.33-2.09Z" style="fill:#d84e0c"/></g><path id="Path_4" data-name="Path 4" d="M22.84,32.64l3.5-2.72L15.78,41.84l.76-2.67h0l6.64-5.73-6.05,3.64Z" style="fill:#d84e0c"/><path id="Path_5" data-name="Path 5" d="M23.19,33.43l-6.65,5.73.59-2.09h0Z" style="fill:#d84e0c"/><path id="Path_6" data-name="Path 6" d="M19.14,30l-2,7L14.7,39Z" style="fill:#d84e0c"/><path id="Path_7" data-name="Path 7" d="M17.15,18.19l-.62,2.13-2-1.16Z" style="fill:#d84e0c"/><path id="Path_8" data-name="Path 8" d="M16.88,15.76l-2.69.87.45-2.58Z" style="fill:#d84e0c"/><path id="Path_9" data-name="Path 9" d="M26.36,29.89l0,0-3.5,2.72,1.44-4.28,2.08,1.52Z" style="fill:#d84e0c;isolation:isolate;opacity:0.8500000238418579"/><path id="Path_10" data-name="Path 10" d="M26.19,25l.17,4.93-2.08-1.52Z" style="fill:#d84e0c"/><path id="Path_11" data-name="Path 11" d="M26.19,25l-1.91,3.41-1-2.29Z" style="fill:#d84e0c"/><path id="Path_12" data-name="Path 12" d="M23.31,26.08l1,2.29-3.1,1Z" style="fill:#d84e0c"/><path id="Path_13" data-name="Path 13" d="M24.28,28.37l-1.44,4.27-5.71,4.43,4.64-5.53Z" style="fill:#d84e0c"/><path id="Path_14" data-name="Path 14" d="M24.28,28.37l-2.51,3.17-4.64,5.53,4.05-7.72Z" style="fill:#d84e0c"/><path id="Path_15" data-name="Path 15" d="M23,19.86l1.11,2.66-2.72.74Z" style="fill:#d84e0c"/><path id="Path_16" data-name="Path 16" d="M21.36,23.26l1.95,2.82-3.11-.63Z" style="fill:#d84e0c;isolation:isolate;opacity:0.8799999952316284"/><path id="Path_17" data-name="Path 17" d="M23.31,26.08l-2.13,3.27-1-3.9Z" style="fill:#d84e0c"/><path id="Path_18" data-name="Path 18" d="M23,19.86l-2.76.46-.55-2.44Z" style="fill:#d84e0c"/><path id="Path_19" data-name="Path 19" d="M20.2,20.32l1.16,2.94-2.87-.74Z" style="fill:#d84e0c"/><path id="Path_20" data-name="Path 20" d="M21.36,23.26,20.2,25.45l-1.71-2.93Z" style="fill:#d84e0c"/><path id="Path_21" data-name="Path 21" d="M20.2,25.45l1,3.9-2,.63Z" style="fill:#d84e0c"/><path id="Path_22" data-name="Path 22" d="M21.18,29.35l-4.05,7.72h0l2-7,0-.07Z" style="fill:#d84e0c"/><path id="Path_23" data-name="Path 23" d="M19.65,17.88l.55,2.44-3.05-2.13Z" style="fill:#d84e0c"/><path id="Path_24" data-name="Path 24" d="M20.2,20.32l-1.71,2.2-2-2.2Z" style="fill:#d84e0c"/><path id="Path_25" data-name="Path 25" d="M18.49,22.52l1.71,2.93-3.1.48Z" style="fill:#d84e0c"/><path id="Path_26" data-name="Path 26" d="M20.2,25.45l-1,4.53,0,.06V30l-2.06-4.05Z" style="fill:#d84e0c"/><path id="Path_27" data-name="Path 27" d="M20.2,20.32H16.53l.62-2.13Z" style="fill:#d84e0c"/><path id="Path_28" data-name="Path 28" d="M19.65,17.88l-2.5.31-.26-2.42Z" style="fill:#d84e0c"/><path id="Path_29" data-name="Path 29" d="M16.53,20.32l2,2.2-2.75.75Z" style="fill:#d84e0c"/><path id="Path_30" data-name="Path 30" d="M18.49,22.52,17.1,25.93l-1.36-2.66Z" style="fill:#d84e0c"/><path id="Path_31" data-name="Path 31" d="M16.89,15.77l.26,2.42-3-1.56,2.69-.87h0Z" style="fill:#d84e0c"/><path id="Path_32" data-name="Path 32" d="M17.15,18.19l-2.64,1-.32-2.53Z" style="fill:#d84e0c"/><path id="Path_33" data-name="Path 33" d="M16.53,20.32l-.79,2.95-1.13-2.22Z" style="fill:#d84e0c"/><path id="Path_34" data-name="Path 34" d="M16.53,20.32l-1.92.73-2.49-3.28,2.39,1.39Z" style="fill:#d84e0c;isolation:isolate;opacity:0.9800000190734863"/><path id="Path_35" data-name="Path 35" d="M14.64,14l-.45,2.59-3.77.15Z" style="fill:#d84e0c"/><path id="Path_36" data-name="Path 36" d="M12.12,17.77l2.49,3.28-4.27-2.36Z" style="fill:#d84e0c"/><path id="Path_37" data-name="Path 37" d="M14.51,19.16l-2.39-1.39,2.07-1.14Z" style="fill:#d84e0c"/><path id="Path_38" data-name="Path 38" d="M14.19,16.63l-2.07,1.14-1.7-1Z" style="fill:#d84e0c"/><path id="Path_39" data-name="Path 39" d="M12.12,17.77l-1.78.92-2-.89Z" style="fill:#d84e0c"/><path id="Path_40" data-name="Path 40" d="M12.12,17.77l-3.74,0h0l2.05-1Z" style="fill:#d84e0c"/><path id="Path_41" data-name="Path 41" d="M10.41,16.78l-2.05,1-3.47-.43Z" style="fill:#d84e0c"/><path id="Path_42" data-name="Path 42" d="M10.34,18.69l-4.58-.36,2.55-.52h.07Z" style="fill:#d84e0c"/><path id="Path_43" data-name="Path 43" d="M8.36,17.79l0,0L0,17.88l4.89-.51Z" style="fill:#d84e0c"/><path id="Path_44" data-name="Path 44" d="M8.31,17.8l-2.55.53L0,17.88l6.22-.06Z" style="fill:#d84e0c"/><path id="Path_45" data-name="Path 45" d="M23,19.86l-2.76.46,1.16,2.94Z" style="fill:#d84e0c"/><path id="Path_46" data-name="Path 46" d="M24.08,22.52l-.77,3.56L26.19,25Z" style="fill:#d84e0c"/><path id="Path_47" data-name="Path 47" d="M40.43,0a.34.34,0,0,0-.34.34h0a.47.47,0,0,0,.06.15l-4.65,4a.29.29,0,0,0-.21-.09.34.34,0,0,0-.34.33h0a.52.52,0,0,0,.06.16L33.46,6.17a.33.33,0,0,0-.19-.08.34.34,0,0,0-.34.34h0a.78.78,0,0,0,0,.14l-2.33,2a.26.26,0,0,0-.12-.05.34.34,0,0,0-.34.33h0s0,.05,0,.08l-2.41,2a.43.43,0,0,0-.24-.1.35.35,0,0,0-.34.35.3.3,0,0,0,.08.18l-3.25,2.75a.35.35,0,0,0-.47,0,.32.32,0,0,0,0,.43l-1.89,1.6a.35.35,0,0,0-.46,0,.33.33,0,0,0,0,.42l-1.28,1.08h0l-.25.21-.24-.19a.34.34,0,0,0,.49.47l0,0s0,0,0,0l2.76,1.65a.3.3,0,0,0,0,.37.32.32,0,0,0,.47,0,.34.34,0,0,0,0-.46l1.47-1.5a.29.29,0,0,0,.13,0l-.7,3.91a.3.3,0,0,0-.28.09.33.33,0,0,0,0,.46.33.33,0,0,0,.38.07l1.74,2a.33.33,0,0,0,.24.54v-.23l.3-.26.27-.25L29.69,22a.34.34,0,0,0,.48,0,.33.33,0,0,0,0-.43L33.07,19h0a.36.36,0,0,0,.48,0,.33.33,0,0,0,0-.45l2.16-1.9a.34.34,0,0,0,.58-.24h0a.33.33,0,0,0-.23-.3l1.11-4h0a.32.32,0,0,0,.12-.62L38.6,7h0A.34.34,0,0,0,39,6.67h0a.32.32,0,0,0-.17-.28L40.37.65a.09.09,0,0,0,.06,0,.34.34,0,0,0,.36-.32A.34.34,0,0,0,40.47,0Zm-.25.55s0,0,0,0l-1.9,2.79a.36.36,0,0,0-.18-.07.33.33,0,0,0-.33.34h0s0,.06,0,.1l-2.24.76a.07.07,0,0,1,0,0ZM35.64,4.69s0-.07,0-.1l2.24-.77a.2.2,0,0,0,.09.09l-.1.15L36,6.89a.34.34,0,0,0-.15-.06h0L35.39,5a.32.32,0,0,0,.25-.31Zm.5,2.45,2.17-.39a.29.29,0,0,0,.11.18L36.67,9.26a.4.4,0,0,0-.2-.09s0,0-.07,0l-.49-1.74a.32.32,0,0,0,.24-.3s0,0,0,0Zm-1.3,5.38-2.36,2.34-.11,0,1-4.45s0,0,.06,0l.15-.06,1.28,1.74a.31.31,0,0,0-.13.25.31.31,0,0,0,.09.2Zm-2.9,2.54-4-.2a.46.46,0,0,0-.07-.16l2.37-1.85s0,0,0,0a.33.33,0,0,0,.42,0L32,14.86a.54.54,0,0,0-.1.2Zm.07.25-2.11,2a.33.33,0,0,0-.39,0l-1.69-2.13v0a.31.31,0,0,0,.09-.18l4,.2a.49.49,0,0,0,.07.19Zm-1.3-2.43a.3.3,0,0,0,.1-.22.32.32,0,0,0-.09-.23l2.49-2.15s.08,0,.12.06l-1,4.45h0a.25.25,0,0,0-.16.06Zm2.94-2.58a.29.29,0,0,0,.15-.25s0,0,0,0l2.41-.37a.25.25,0,0,0,.13.14L35.22,12s-.08,0-.11,0a.26.26,0,0,0-.17.07Zm2.48-.78s0,.05,0,.08l-2.4.36a.42.42,0,0,0-.09-.16l2-2.37a.29.29,0,0,0,.18.07h.06l.48,1.74a.31.31,0,0,0-.22.3ZM35,4.91a.44.44,0,0,0,.25.13s0,0,.05,0l.38,1.86a.26.26,0,0,0-.2.19l-1.93-.54s0,0,0-.09a.43.43,0,0,0-.09-.23ZM33.28,6.78a.31.31,0,0,0,.28-.21l1.93.55s0,0,0,0a.33.33,0,0,0,.1.24l-2,2.36a.29.29,0,0,0-.16-.07h0l-.19-2.94h0ZM33,6.63a.42.42,0,0,0,.18.11l.19,3a.27.27,0,0,0-.2.17l-2.32-1s0,0,0-.05a.34.34,0,0,0-.15-.26Zm-2.5,2.53h0a.31.31,0,0,0,.3-.22l2.32,1a.36.36,0,0,0,0,.09.25.25,0,0,0,.08.16l-2.51,2.17a.28.28,0,0,0-.18-.06ZM30.26,9a.26.26,0,0,0,.18.16v3.19a.29.29,0,0,0-.21.09,0,0,0,0,0,0,0l-2.35-1.12a.24.24,0,0,0,.05-.12.34.34,0,0,0-.07-.19Zm-2.65,2.56a.31.31,0,0,0,.25-.16l2.33,1.14a.26.26,0,0,0,0,.27l-2.37,1.87h0a.29.29,0,0,0-.21-.09Zm.15,3.62,1.69,2.13h0a.37.37,0,0,0-.1.24l-4.1.34a.36.36,0,0,0-.07-.18l2.23-2.54a.33.33,0,0,0,.36,0Zm1.67,2.59L26.8,20.49a.35.35,0,0,0-.34,0l-1.34-2.29s0,0,.05,0a.37.37,0,0,0,.1-.23l4.1-.34a.34.34,0,0,0,.05.17Zm-2.08-6.3a.34.34,0,0,0,.2.09v3a.34.34,0,0,0-.2.09.35.35,0,0,0-.08.16l-3.1-.4a.37.37,0,0,0-.07-.2Zm-4.61,8.21,0,.05L20,18.05a.38.38,0,0,0,0-.33l1.27-1.07v0a.3.3,0,0,0,.36,0l1.24,2.91a.32.32,0,0,0-.09,0Zm.45,0a.3.3,0,0,0-.3-.05l-1.24-2.91h.06a.44.44,0,0,0,.06-.16l2.86,1.3a.27.27,0,0,0,.05.31Zm1.49-2a.26.26,0,0,1,0,.08L21.8,16.46a.41.41,0,0,0-.08-.24l1.88-1.59a.32.32,0,0,0,.3.07l.9,2.92a.35.35,0,0,0-.13.05Zm-.72-3s.09,0,.12-.05a.28.28,0,0,0,.07-.17l3.1.41a.38.38,0,0,0,.09.25l-2.22,2.53a.42.42,0,0,0-.25-.05ZM26,24.7l-1.72-2s0,0,.05,0a.33.33,0,0,0,0-.46h0a.27.27,0,0,0-.14-.07l.7-3.91a.25.25,0,0,0,.15,0l1.36,2.3-.07,0a.36.36,0,0,0,0,.48.34.34,0,0,0,.19.07l-.31,3.55a.31.31,0,0,0-.22.09Zm.47,0v0a.26.26,0,0,0-.19-.07l.32-3.55a.34.34,0,0,0,.23-.1.21.21,0,0,0,.05-.13l2.74.81a.26.26,0,0,0,.05.25Zm3.21-3.25s0,.08-.05.11l-2.73-.79a.32.32,0,0,0-.06-.27l2.63-2.76a.33.33,0,0,0,.19.08l.21,3.54a.34.34,0,0,0-.19.09Zm.47,0a.43.43,0,0,0-.22-.09l-.21-3.55a.37.37,0,0,0,.2-.07.49.49,0,0,0,0-.11l3,1.05a.28.28,0,0,0,0,.22Zm2.92-3a.21.21,0,0,0,0,.13l-3-1.06a.27.27,0,0,0,0-.26l2.11-2a.31.31,0,0,0,.22.09.05.05,0,0,0,0,0l.84,3.06-.09,0Zm.45,0a.3.3,0,0,0-.3-.05l-.84-3.06a.28.28,0,0,0,.17-.15l3.09,1.09s0,0,0,.07a.33.33,0,0,0,.08.19Zm2.14-2.23-3.08-1.09s0,0,0-.08a.29.29,0,0,0-.09-.21l2.37-2.33a.36.36,0,0,0,.22.09s0,0,0,0l.72,3.46a.31.31,0,0,0-.19.18Zm.34-.19s0,0,0,0,0,0,0,0l-.73-3.47a.34.34,0,0,0,.25-.3s0,0,0-.05L37,11.9a.27.27,0,0,0,.17.19Zm1.28-4.61-.06,0a.34.34,0,0,0-.34.33h0s0,0,0,0l-1.52.37a.29.29,0,0,0-.14-.17l1.12-2.22s.06,0,.09,0a.35.35,0,0,0,.34-.34h0a.43.43,0,0,0-.09-.23L38.48,7l.07,0Zm1-4.81s0,0,0,0l-2.17.38a.44.44,0,0,0-.1-.16l2-3s.07,0,.12,0h0l.44,2.35a.33.33,0,0,0-.3.33Zm.44-.3s-.05,0-.07,0L38.19,4a.32.32,0,0,0,.26-.3.34.34,0,0,0-.11-.25L40.25.6s0,0,0,0Z" style="fill:#d84e0c"/><circle id="Ellipse_1" data-name="Ellipse 1" cx="26.19" cy="24.96" r="0.34" style="fill:#d84e0c"/><path id="Path_48" data-name="Path 48" d="M24.08,22.52l-.77,3.56-1.95-2.82Z" style="fill:#d84e0c"/></g></g></g></svg>