<svg id="Group_12411" data-name="Group 12411" xmlns="http://www.w3.org/2000/svg" width="40.778" height="41.843" viewBox="0 0 40.778 41.843">
  <g id="Group_12290" data-name="Group 12290">
    <path id="Path_1" data-name="Path 1" d="M241.33,244.089l.6-2.106-.153-.159-2.043,1.582,4.192-8.431.009-.044,0-.132-4.537-8.922-4.325-2.411-4.625-.378-4.4-.344,9.054-.959,4.2-2.7,4.943,3.782,3.32,1.989,1.065,2.6,2.139,2.476.132,4.848-10.185,11.462Z" transform="translate(-224.679 -204.871)" fill="#d84e0c"/>
    <g id="Group_1" data-name="Group 1" transform="translate(19.651 6.382)">
      <path id="Path_2" data-name="Path 2" d="M380.363,268.454l1.6-3.4-2.757.464Z" transform="translate(-378.659 -251.58)" fill="#d84e0c"/>
      <path id="Path_3" data-name="Path 3" d="M392.3,160.782l-2.143.541-1.674-2.268-.235-3.629-9.065,7.714-.6.506-.005,0-1.241,1.062-1.615,1.37h0l-1,.852,3.309,1.98,1.115,2.657-.765,3.559L381.266,174l.212-.134,3.323-2.919.094-.077s.381-.358.382-.357l2.834-2.49s.557-.509.557-.508L391,165.426Z" transform="translate(-374.724 -155.425)" fill="#d84e0c"/>
    </g>
    <path id="Path_4" data-name="Path 4" d="M350.281,349.636l3.5-2.72-10.552,11.919.752-2.669.013-.013,6.642-5.728-6.053,3.635Z" transform="translate(-327.446 -316.992)" fill="#d84e0c"/>
    <path id="Path_5" data-name="Path 5" d="M356.086,375.459l-6.642,5.728.589-2.093.025-.013Z" transform="translate(-332.9 -342.026)" fill="#d84e0c"/>
    <path id="Path_6" data-name="Path 6" d="M338.895,347.834l-2.005,7.031-2.431,1.892Z" transform="translate(-319.757 -317.797)" fill="#d84e0c"/>
    <path id="Path_7" data-name="Path 7" d="M335.561,251.5l-.614,2.131-2.018-1.166Z" transform="translate(-318.416 -233.307)" fill="#d84e0c"/>
    <path id="Path_8" data-name="Path 8" d="M332.973,219.475l-2.695.865.451-2.582Z" transform="translate(-316.091 -203.713)" fill="#d84e0c"/>
    <path id="Path_9" data-name="Path 9" d="M404.139,335.8l-.025.025-3.5,2.72,1.441-4.274,2.08,1.517Z" transform="translate(-377.783 -305.906)" fill="#d84e0c" opacity="0.85"/>
    <path id="Path_10" data-name="Path 10" d="M414.258,306.548l.163,4.925-2.08-1.517Z" transform="translate(-388.064 -281.587)" fill="#d84e0c"/>
    <path id="Path_11" data-name="Path 11" d="M407.373,306.548l-1.917,3.409-.965-2.294Z" transform="translate(-381.18 -281.587)" fill="#d84e0c"/>
    <path id="Path_12" data-name="Path 12" d="M389.291,315.62l.965,2.294-3.1.977Z" transform="translate(-365.98 -289.544)" fill="#d84e0c"/>
    <path id="Path_13" data-name="Path 13" d="M361.378,334.276l-1.441,4.274-5.7,4.424,4.637-5.527Z" transform="translate(-337.102 -305.906)" fill="#d84e0c"/>
    <path id="Path_14" data-name="Path 14" d="M361.378,334.276l-2.507,3.171-4.637,5.527,4.048-7.72Z" transform="translate(-337.102 -305.906)" fill="#d84e0c"/>
    <path id="Path_15" data-name="Path 15" d="M390.192,265.058l1.115,2.657-2.72.739Z" transform="translate(-367.232 -245.198)" fill="#d84e0c"/>
    <path id="Path_16" data-name="Path 16" d="M380.363,292.684l1.955,2.82-3.108-.627Z" transform="translate(-359.007 -269.427)" fill="#d84e0c" opacity="0.88"/>
    <path id="Path_17" data-name="Path 17" d="M382.318,311.15l-2.131,3.271-.978-3.9Z" transform="translate(-359.007 -285.073)" fill="#d84e0c"/>
    <path id="Path_18" data-name="Path 18" d="M378.033,250.932l-2.757.464-.552-2.444Z" transform="translate(-355.073 -231.072)" fill="#d84e0c"/>
    <path id="Path_19" data-name="Path 19" d="M366.961,268.83l1.153,2.933-2.87-.74Z" transform="translate(-346.758 -248.506)" fill="#d84e0c"/>
    <path id="Path_20" data-name="Path 20" d="M368.114,287.409l-1.153,2.193-1.717-2.933Z" transform="translate(-346.758 -264.152)" fill="#d84e0c"/>
    <path id="Path_21" data-name="Path 21" d="M371.789,310.523l.977,3.9-2.018.627Z" transform="translate(-351.586 -285.073)" fill="#d84e0c"/>
    <path id="Path_22" data-name="Path 22" d="M358.282,342.227l-4.048,7.72h0l2.005-7.031.025-.063Z" transform="translate(-337.102 -312.879)" fill="#d84e0c"/>
    <path id="Path_23" data-name="Path 23" d="M356.843,248.952l.552,2.444-3.058-2.131Z" transform="translate(-337.191 -231.072)" fill="#d84e0c"/>
    <path id="Path_24" data-name="Path 24" d="M353.013,268.83l-1.717,2.193-1.955-2.193Z" transform="translate(-332.81 -248.506)" fill="#d84e0c"/>
    <path id="Path_25" data-name="Path 25" d="M355.32,286.67l1.717,2.933-3.108.476Z" transform="translate(-336.834 -264.152)" fill="#d84e0c"/>
    <path id="Path_26" data-name="Path 26" d="M357.037,310.523,356,315.048l-.025.063.012-.063L353.928,311Z" transform="translate(-336.834 -285.073)" fill="#d84e0c"/>
    <path id="Path_27" data-name="Path 27" d="M353.013,253.631h-3.672l.614-2.131Z" transform="translate(-332.81 -233.307)" fill="#d84e0c"/>
    <path id="Path_28" data-name="Path 28" d="M355.055,233.931l-2.507.313-.251-2.419Z" transform="translate(-335.403 -216.051)" fill="#d84e0c"/>
    <path id="Path_29" data-name="Path 29" d="M343.709,268.83l1.955,2.193-2.745.752Z" transform="translate(-327.178 -248.506)" fill="#d84e0c"/>
    <path id="Path_30" data-name="Path 30" d="M345.664,286.67l-1.391,3.409-1.354-2.657Z" transform="translate(-327.178 -264.152)" fill="#d84e0c"/>
    <path id="Path_31" data-name="Path 31" d="M332.985,231.736l.251,2.419-2.958-1.566,2.695-.865h.013Z" transform="translate(-316.091 -215.962)" fill="#d84e0c"/>
    <path id="Path_32" data-name="Path 32" d="M333.236,240.324l-2.632.965-.326-2.532Z" transform="translate(-316.091 -222.131)" fill="#d84e0c"/>
    <path id="Path_33" data-name="Path 33" d="M335.662,268.83l-.79,2.945-1.128-2.218Z" transform="translate(-319.131 -248.506)" fill="#d84e0c"/>
    <path id="Path_34" data-name="Path 34" d="M317.87,250.591l-1.917.727-2.494-3.284,2.394,1.391Z" transform="translate(-301.339 -230.267)" fill="#d84e0c" opacity="0.98"/>
    <path id="Path_35" data-name="Path 35" d="M303.818,217.758l-.451,2.582-3.772.15Z" transform="translate(-289.179 -203.713)" fill="#d84e0c"/>
    <path id="Path_36" data-name="Path 36" d="M300.762,248.034l2.494,3.284-4.274-2.356Z" transform="translate(-288.643 -230.267)" fill="#d84e0c"/>
    <path id="Path_37" data-name="Path 37" d="M315.852,241.289l-2.394-1.391,2.068-1.141Z" transform="translate(-301.339 -222.131)" fill="#d84e0c"/>
    <path id="Path_38" data-name="Path 38" d="M303.367,238.758,301.3,239.9l-1.7-.99Z" transform="translate(-289.179 -222.131)" fill="#d84e0c"/>
    <path id="Path_39" data-name="Path 39" d="M286.815,248.034l-1.78.927-1.955-.89Z" transform="translate(-274.696 -230.267)" fill="#d84e0c"/>
    <path id="Path_40" data-name="Path 40" d="M286.636,240.971l-3.735.038-.025-.013,2.055-1.015Z" transform="translate(-274.517 -223.204)" fill="#d84e0c"/>
    <path id="Path_41" data-name="Path 41" d="M260.166,239.981,258.11,241l-3.472-.426Z" transform="translate(-249.751 -223.204)" fill="#d84e0c"/>
    <path id="Path_42" data-name="Path 42" d="M266.349,249.23l-4.575-.363,2.544-.526h.075Z" transform="translate(-256.009 -230.535)" fill="#d84e0c"/>
    <path id="Path_43" data-name="Path 43" d="M223.242,245.2l-.05.013-8.309.075,4.888-.514Z" transform="translate(-214.882 -227.406)" fill="#d84e0c"/>
    <path id="Path_44" data-name="Path 44" d="M223.191,248.34l-2.544.526-5.765-.451,6.223-.056Z" transform="translate(-214.882 -230.535)" fill="#d84e0c"/>
    <path id="Path_45" data-name="Path 45" d="M381.967,265.058l-2.757.464,1.153,2.933Z" transform="translate(-359.007 -245.198)" fill="#d84e0c"/>
    <path id="Path_46" data-name="Path 46" d="M405.255,286.67l-.765,3.559,2.883-1.115Z" transform="translate(-381.18 -264.152)" fill="#d84e0c"/>
    <path id="Path_47" data-name="Path 47" d="M393.224,103.517a.337.337,0,0,0-.338.338.323.323,0,0,0,.063.15l-4.65,3.948a.326.326,0,0,0-.213-.088.337.337,0,0,0-.338.338.368.368,0,0,0,.063.163l-1.554,1.316a.353.353,0,0,0-.188-.075.337.337,0,0,0-.338.338.356.356,0,0,0,.05.138l-2.331,1.98c-.038-.013-.075-.05-.126-.05a.337.337,0,0,0-.338.338c0,.038.025.05.038.075l-2.406,2.043a.409.409,0,0,0-.238-.1.348.348,0,0,0-.339.351.282.282,0,0,0,.075.175l-3.246,2.757a.348.348,0,0,0-.476,0,.325.325,0,0,0-.025.426l-1.892,1.6a.346.346,0,0,0-.464.013.321.321,0,0,0-.025.414l-1.278,1.078H372.7l-.251.213-.238-.188a.329.329,0,0,0,.025.451.325.325,0,0,0,.476,0c.025-.012.013-.025.025-.037l2.757,1.642a.32.32,0,0,0,.038.376.337.337,0,0,0,.5-.451l1.479-1.5a.377.377,0,0,0,.125.05l-.7,3.91a.29.29,0,0,0-.276.088.323.323,0,0,0,.363.526l1.742,2.005a.327.327,0,0,0,.013.439.337.337,0,0,0,.226.1v-.226l.3-.263.276-.251,2.908-2.569a.337.337,0,0,0,.476-.013.325.325,0,0,0,.025-.426l2.883-2.544v.012a.349.349,0,0,0,.476,0,.33.33,0,0,0,.012-.451l2.156-1.9a.341.341,0,0,0,.238.1.337.337,0,0,0,.339-.338.324.324,0,0,0-.226-.3l1.115-4c.013,0,.038.013.05.013a.348.348,0,0,0,.351-.338.334.334,0,0,0-.238-.288l1.253-4.5h.013a.337.337,0,0,0,.338-.338.308.308,0,0,0-.175-.276l1.592-5.74c.025.012.038.025.063.025a.339.339,0,1,0,0-.677Zm-.251.551c.013,0,.013.025.013.038l-1.9,2.795a.356.356,0,0,0-.175-.075.34.34,0,0,0-.338.351c0,.038.025.063.037.1l-2.243.764a.075.075,0,0,1-.013-.05Zm-4.537,4.136c0-.038-.038-.063-.05-.1l2.243-.765a.293.293,0,0,0,.088.088l-.1.15-1.867,2.832a.321.321,0,0,0-.15-.063c-.013,0-.013.013-.025.013l-.389-1.855A.32.32,0,0,0,388.437,108.2Zm.5,2.456,2.168-.389a.33.33,0,0,0,.113.175l-1.755,2.331a.331.331,0,0,0-.2-.088c-.025,0-.037.025-.063.038l-.489-1.742a.32.32,0,0,0,.238-.3C388.951,110.673,388.938,110.673,388.938,110.661Zm-1.3,5.376-2.356,2.344a.449.449,0,0,0-.113-.05l1.015-4.449c.025,0,.037.025.063.025a.322.322,0,0,0,.151-.063l1.278,1.742a.308.308,0,0,0-.125.251A.3.3,0,0,0,387.635,116.037Zm-2.895,2.544-4.023-.2a.389.389,0,0,0-.075-.163l2.369-1.855a.046.046,0,0,0,.012.038.339.339,0,0,0,.426.025l1.391,1.955A.382.382,0,0,0,384.74,118.581Zm.063.251L382.7,120.8a.32.32,0,0,0-.389-.025l-1.692-2.131v-.013a.329.329,0,0,0,.088-.188l4.023.2A.317.317,0,0,0,384.8,118.832Zm-1.3-2.431a.273.273,0,0,0,.1-.226.3.3,0,0,0-.088-.226l2.494-2.156c.025.038.075.038.113.063l-1.015,4.449c-.013,0-.025-.012-.038-.012a.369.369,0,0,0-.163.063Zm2.945-2.582a.319.319,0,0,0,.15-.251c0-.013-.012-.013-.012-.025l2.406-.363a.248.248,0,0,0,.138.138l-1.116,2.218c-.038-.013-.075-.05-.113-.05a.28.28,0,0,0-.163.075Zm2.481-.777c0,.025.025.05.038.075l-2.406.363a.342.342,0,0,0-.088-.163l1.955-2.369a.315.315,0,0,0,.175.075c.025,0,.038-.013.063-.013l.476,1.742A.309.309,0,0,0,388.926,113.042Zm-1.09-4.612a.373.373,0,0,0,.251.125c.025,0,.038-.025.05-.025l.376,1.855a.276.276,0,0,0-.2.188l-1.93-.539c0-.038.025-.05.025-.088a.36.36,0,0,0-.088-.226Zm-1.767,1.867a.327.327,0,0,0,.288-.213l1.93.551c0,.013-.025.025-.025.05a.322.322,0,0,0,.1.238l-1.955,2.369a.28.28,0,0,0-.163-.075l-.012.013-.188-2.945C386.056,110.285,386.056,110.3,386.068,110.3Zm-.263-.15a.329.329,0,0,0,.175.113l.188,3a.293.293,0,0,0-.2.163l-2.319-1.015c0-.013.025-.025.025-.05a.357.357,0,0,0-.15-.263Zm-2.507,2.531c.013,0,.013.013.025.013a.324.324,0,0,0,.3-.225l2.319,1.015a.188.188,0,0,0-.038.088.281.281,0,0,0,.075.163l-2.507,2.168a.333.333,0,0,0-.176-.063Zm-.251-.188a.272.272,0,0,0,.188.163v3.183a.294.294,0,0,0-.213.088.046.046,0,0,0-.012.038l-2.344-1.128c.025-.05.05-.075.05-.113a.318.318,0,0,0-.075-.188Zm-2.644,2.557a.346.346,0,0,0,.251-.163l2.331,1.14a.272.272,0,0,0,0,.276l-2.369,1.867v-.013a.356.356,0,0,0-.213-.088Zm.15,3.622,1.692,2.131h-.012a.342.342,0,0,0-.1.238l-4.1.338a.316.316,0,0,0-.075-.175l2.231-2.544A.345.345,0,0,0,380.554,118.669Zm1.667,2.594-2.632,2.745a.328.328,0,0,0-.338-.025l-1.341-2.294c.013-.013.038,0,.05-.025a.337.337,0,0,0,.1-.226l4.1-.338A.37.37,0,0,0,382.221,121.263Zm-2.08-6.3a.366.366,0,0,0,.2.088v3.02a.3.3,0,0,0-.2.088.319.319,0,0,0-.075.163l-3.1-.4a.393.393,0,0,0-.075-.2Zm-4.612,8.209a.075.075,0,0,0-.013.05l-2.757-1.654a.371.371,0,0,0-.013-.326l1.266-1.078v.025a.3.3,0,0,0,.363.038l1.241,2.908C375.591,123.143,375.553,123.143,375.528,123.168Zm.451-.013a.3.3,0,0,0-.3-.05l-1.241-2.908c.025-.013.038,0,.063-.013a.437.437,0,0,0,.063-.163l2.857,1.3a.287.287,0,0,0,.05.313Zm1.491-1.968c-.013.025-.013.05-.025.075l-2.857-1.291a.413.413,0,0,0-.075-.238l1.88-1.592a.329.329,0,0,0,.3.075l.9,2.92A.265.265,0,0,0,377.471,121.188Zm-.714-3c.037-.025.088-.025.113-.05a.315.315,0,0,0,.075-.175l3.1.414a.383.383,0,0,0,.088.251l-2.218,2.532a.352.352,0,0,0-.25-.05Zm2.043,10.026-1.717-1.98c.025-.013.038-.013.05-.025a.326.326,0,0,0,0-.476.278.278,0,0,0-.138-.063l.7-3.91a.355.355,0,0,0,.15-.05l1.354,2.294c-.025.012-.038.012-.063.025a.349.349,0,0,0,0,.476.4.4,0,0,0,.188.075l-.313,3.547A.294.294,0,0,0,378.8,128.219Zm.476.038a.039.039,0,0,1-.013-.025.276.276,0,0,0-.188-.075l.313-3.547a.343.343,0,0,0,.238-.1.222.222,0,0,0,.05-.125l2.732.8a.3.3,0,0,0,.05.251Zm3.208-3.246c-.038.025-.038.075-.05.113l-2.732-.79a.311.311,0,0,0-.062-.276l2.632-2.757a.3.3,0,0,0,.188.075l.213,3.547A.267.267,0,0,0,382.484,125.011Zm.464-.012a.355.355,0,0,0-.213-.088l-.213-3.547a.392.392,0,0,0,.2-.075.4.4,0,0,0,.038-.113l3.033,1.053a.294.294,0,0,0,.038.226Zm2.92-2.958a.264.264,0,0,0-.05.125l-3.033-1.053a.287.287,0,0,0-.05-.263l2.105-1.968a.361.361,0,0,0,.226.088.065.065,0,0,0,.05-.025l.84,3.058C385.93,122.015,385.893,122.015,385.868,122.04Zm.451-.013a.32.32,0,0,0-.3-.05l-.84-3.058a.3.3,0,0,0,.176-.15l3.083,1.09c0,.025-.025.037-.025.075a.353.353,0,0,0,.075.188Zm2.143-2.231-3.083-1.09c0-.025.025-.05.025-.075a.327.327,0,0,0-.088-.213l2.369-2.331a.3.3,0,0,0,.213.088c.013,0,.013-.013.038-.013l.714,3.459A.324.324,0,0,0,388.462,119.8Zm.338-.188c-.012,0-.025-.025-.05-.025s-.025.013-.038.025l-.727-3.472a.332.332,0,0,0,.251-.3c0-.025-.013-.025-.025-.05.426-.1,1.115-.263,1.529-.364a.29.29,0,0,0,.175.188ZM390.091,115c-.025-.013-.037-.025-.062-.025a.337.337,0,0,0-.339.338.065.065,0,0,0,.025.05c-.414.1-1.115.276-1.517.376a.324.324,0,0,0-.138-.175l1.115-2.218c.038.013.063.037.088.037a.337.337,0,0,0,.339-.338.361.361,0,0,0-.088-.226l1.767-2.344a.214.214,0,0,1,.063.025Zm.978-4.813c0,.013.013.013.013.025l-2.168.388a.36.36,0,0,0-.1-.163l1.968-2.97c.037.013.075.05.125.05.012,0,.012-.013.025-.013l.439,2.356A.319.319,0,0,0,391.069,110.184Zm.439-.3c-.025-.013-.05-.038-.075-.038l-.451-2.369a.319.319,0,0,0,.263-.3.316.316,0,0,0-.113-.251l1.917-2.807a.1.1,0,0,0,.05.025Z" transform="translate(-352.797 -103.517)" fill="#d84e0c"/>
    <ellipse id="Ellipse_1" data-name="Ellipse 1" cx="0.343" cy="0.343" rx="0.343" ry="0.343" transform="translate(25.85 24.618)" fill="#d84e0c"/>
    <path id="Path_48" data-name="Path 48" d="M391.308,286.67l-.764,3.559-1.955-2.82Z" transform="translate(-367.232 -264.152)" fill="#d84e0c"/>
  </g>
</svg>
